<svg xmlns="http://www.w3.org/2000/svg" width="28" height="28" fill="none">
  <path fill="#F27121" d="M20.348 16.104a.432.432 0 0 0-.607 0l-1.008 1.008-1.867-1.867 4.8-4.8v-.005l.108-.109A5.182 5.182 0 0 0 26.476 8.9a5.212 5.212 0 0 0 1.311-5.182.43.43 0 0 0-.716-.178l-2.239 2.24-2.056-.55-.55-2.056 2.24-2.24a.432.432 0 0 0 .114-.406.441.441 0 0 0-.292-.31 5.213 5.213 0 0 0-5.183 1.312 5.188 5.188 0 0 0-1.431 4.702l-4.92 4.919-6.379-6.38 1.1-1.099a.426.426 0 0 0 .12-.355.439.439 0 0 0-.2-.315L3.098.378a.432.432 0 0 0-.526.063L.729 2.28a.425.425 0 0 0-.063.527l2.617 4.295a.407.407 0 0 0 .315.2h.051a.429.429 0 0 0 .304-.125l.801-.802 6.38 6.38-4.782 4.781-.114.115a5.158 5.158 0 0 0-4.702 1.431 5.213 5.213 0 0 0-1.311 5.183.43.43 0 0 0 .309.292c.143.034.303 0 .407-.114l2.239-2.24 2.055.55.55 2.056-2.239 2.24a.432.432 0 0 0-.114.406c.04.149.148.263.292.309a5.16 5.16 0 0 0 1.494.218 5.197 5.197 0 0 0 3.688-1.53 5.188 5.188 0 0 0 1.432-4.701l4.902-4.902 1.867 1.867-1.008 1.008a.432.432 0 0 0 0 .607l6.683 6.683a3 3 0 0 0 2.125.876 3 3 0 0 0 2.124-.876 2.933 2.933 0 0 0 .876-2.125c0-.807-.309-1.557-.876-2.124l-6.683-6.683v.023Z"/>
</svg>