<svg width="30" height="22" viewBox="0 0 30 22" xmlns="http://www.w3.org/2000/svg">
    <path d="M26.783 17.777c-.68 0-1.232-.554-1.232-1.239 0-.684.552-1.239 1.232-1.239.68 0 1.232.555 1.232 1.24 0 .684-.551 1.238-1.232 1.238m-3.318-9.405c-.68 0-1.232-.554-1.232-1.239 0-.684.552-1.239 1.232-1.239.68 0 1.232.555 1.232 1.24 0 .684-.552 1.238-1.232 1.238m-2.9 2.707-3.376 4.302a2.288 2.288 0 0 1-2.016 3.027 2.284 2.284 0 0 1-2.416-2.148 2.288 2.288 0 0 1 2.61-2.409l4.145-3.676c.618-.614 1.585.213 1.052.904M6.162 8.507c-.68 0-1.232-.555-1.232-1.24 0-.683.551-1.238 1.232-1.238.68 0 1.232.554 1.232 1.239 0 .684-.552 1.239-1.232 1.239m-2.827 9.27c-.68 0-1.232-.554-1.232-1.239 0-.684.551-1.239 1.232-1.239.68 0 1.232.555 1.232 1.24 0 .684-.552 1.238-1.232 1.238M15.09 2.021c.68 0 1.232.555 1.232 1.24 0 .683-.551 1.238-1.232 1.238-.68 0-1.232-.555-1.232-1.239s.552-1.239 1.232-1.239M15 0C6.716 0 0 6.754 0 15.085c0 2.134.443 4.163 1.238 6.003.214.441.54.898 1.447.911V22h24.64c.724-.028 1.178-.414 1.417-.866A15.089 15.089 0 0 0 30 15.085C30 6.754 23.284 0 15 0" fill="#F37121" fill-rule="evenodd"/>
</svg>
